<?xml version="1.0" encoding="UTF-8" standalone="no"?>
<!DOCTYPE svg PUBLIC "-//W3C//DTD SVG 1.1//EN"
 "http://www.w3.org/Graphics/SVG/1.1/DTD/svg11.dtd">
<!-- Generated by graphviz version 2.38.0 (20140413.2041)
 -->
<!-- Title: G Pages: 1 -->
<svg width="247pt" height="305pt"
 viewBox="0.00 0.00 246.74 305.00" xmlns="http://www.w3.org/2000/svg" xmlns:xlink="http://www.w3.org/1999/xlink">
<g id="graph0" class="graph" transform="scale(1 1) rotate(0) translate(4 301)">
<title>G</title>
<!-- person -->
<g id="node1" class="node"><title>person</title>
<ellipse fill="none" stroke="black" cx="34.4469" cy="-192" rx="34.394" ry="18"/>
<text text-anchor="middle" x="34.4469" y="-188.3" font-family="Times,serif" font-size="14.00">person</text>
</g>
<!-- name -->
<g id="node2" class="node"><title>name</title>
<ellipse fill="none" stroke="black" cx="34.4469" cy="-105" rx="30.5947" ry="18"/>
<text text-anchor="middle" x="34.4469" y="-101.3" font-family="Times,serif" font-size="14.00">name</text>
</g>
<!-- person&#45;&gt;name -->
<g id="edge1" class="edge"><title>person&#45;&gt;name</title>
<path fill="none" stroke="black" d="M34.4469,-173.799C34.4469,-162.163 34.4469,-146.548 34.4469,-133.237"/>
<polygon fill="black" stroke="black" points="37.947,-133.175 34.4469,-123.175 30.947,-133.175 37.947,-133.175"/>
<text text-anchor="middle" x="49.9469" y="-144.8" font-family="Times,serif" font-size="14.00">name</text>
</g>
<!-- John -->
<g id="node3" class="node"><title>John</title>
<ellipse fill="none" stroke="black" cx="34.4469" cy="-18" rx="27.0966" ry="18"/>
<text text-anchor="middle" x="34.4469" y="-14.3" font-family="Times,serif" font-size="14.00">John</text>
</g>
<!-- name&#45;&gt;John -->
<g id="edge2" class="edge"><title>name&#45;&gt;John</title>
<path fill="none" stroke="black" d="M34.4469,-86.799C34.4469,-75.1626 34.4469,-59.5479 34.4469,-46.2368"/>
<polygon fill="black" stroke="black" points="37.947,-46.1754 34.4469,-36.1754 30.947,-46.1755 37.947,-46.1754"/>
<text text-anchor="middle" x="44.9469" y="-57.8" font-family="Times,serif" font-size="14.00">op1</text>
</g>
<!-- send -->
<g id="node4" class="node"><title>send</title>
<ellipse fill="none" stroke="black" cx="104.447" cy="-279" rx="38.1938" ry="18"/>
<text text-anchor="middle" x="104.447" y="-275.3" font-family="Times,serif" font-size="14.00">send&#45;02</text>
</g>
<!-- send&#45;&gt;person -->
<g id="edge3" class="edge"><title>send&#45;&gt;person</title>
<path fill="none" stroke="black" d="M79.995,-264.934C71.0117,-259.173 61.3584,-251.719 54.4469,-243 48.9966,-236.125 44.8547,-227.571 41.7942,-219.493"/>
<polygon fill="black" stroke="black" points="45.1084,-218.368 38.5823,-210.022 38.4791,-220.616 45.1084,-218.368"/>
<text text-anchor="middle" x="72.4469" y="-231.8" font-family="Times,serif" font-size="14.00">ARG0</text>
</g>
<!-- boy -->
<g id="node5" class="node"><title>boy</title>
<ellipse fill="none" stroke="black" cx="138.447" cy="-105" rx="27" ry="18"/>
<text text-anchor="middle" x="138.447" y="-101.3" font-family="Times,serif" font-size="14.00">boy</text>
</g>
<!-- send&#45;&gt;boy -->
<g id="edge4" class="edge"><title>send&#45;&gt;boy</title>
<path fill="none" stroke="black" d="M104.542,-260.856C104.975,-240.066 106.744,-204.071 113.447,-174 116.643,-159.663 122.125,-144.256 127.143,-131.738"/>
<polygon fill="black" stroke="black" points="130.42,-132.973 131.015,-122.395 123.953,-130.293 130.42,-132.973"/>
<text text-anchor="middle" x="131.447" y="-188.3" font-family="Times,serif" font-size="14.00">ARG1</text>
</g>
<!-- sleep -->
<g id="node6" class="node"><title>sleep</title>
<ellipse fill="none" stroke="black" cx="198.447" cy="-192" rx="40.0939" ry="18"/>
<text text-anchor="middle" x="198.447" y="-188.3" font-family="Times,serif" font-size="14.00">sleep&#45;01</text>
</g>
<!-- send&#45;&gt;sleep -->
<g id="edge6" class="edge"><title>send&#45;&gt;sleep</title>
<path fill="none" stroke="black" d="M121.252,-262.804C135.865,-249.59 157.231,-230.269 173.783,-215.303"/>
<polygon fill="black" stroke="black" points="176.4,-217.654 181.47,-208.351 171.705,-212.462 176.4,-217.654"/>
<text text-anchor="middle" x="175.447" y="-231.8" font-family="Times,serif" font-size="14.00">ARG2</text>
</g>
<!-- sleep&#45;&gt;boy -->
<g id="edge5" class="edge"><title>sleep&#45;&gt;boy</title>
<path fill="none" stroke="black" d="M186.878,-174.611C177.911,-161.907 165.355,-144.12 155.275,-129.84"/>
<polygon fill="black" stroke="black" points="158,-127.63 149.373,-121.479 152.281,-131.667 158,-127.63"/>
<text text-anchor="middle" x="189.447" y="-144.8" font-family="Times,serif" font-size="14.00">ARG0</text>
</g>
</g>
</svg>
